<svg xmlns="http://www.w3.org/2000/svg" viewBox="0 0 200 200" width="200" height="200">
  <defs>
    <clipPath id="c">
      <path d="M 40,0 L 160,0 Q 200,0 200,40 L 200,160 Q 200,200 160,200 L 40,200 Q 0,200 0,160 L 0,40 Q 0,0 40,0 Z"/>
    </clipPath>
  </defs>
  <path fill="#FAFAF7" d="M 40,0 L 160,0 Q 200,0 200,40 L 200,160 Q 200,200 160,200 L 40,200 Q 0,200 0,160 L 0,40 Q 0,0 40,0 Z"/>
  <g clip-path="url(#c)" fill="#0F0F10">
    <g>
      <rect x="36" y="59" width="128" height="33" rx="11"/>
      <rect x="36" y="108" width="128" height="33" rx="11"/>
      <animateTransform attributeName="transform" type="translate" values="0,-37; 0,37; 0,-37" keyTimes="0; 0.5; 1" dur="2.4s" calcMode="spline" keySplines="0.42 0 0.58 1; 0.42 0 0.58 1" repeatCount="indefinite"/>
    </g>
  </g>
</svg>