<svg width="200" height="200" viewBox="0 0 200 200" fill="none" xmlns="http://www.w3.org/2000/svg">
<g clip-path="url(#clip0_785_4796)">
<path fill-rule="evenodd" clip-rule="evenodd" d="M40 0H160C186.667 0 200 13.3333 200 40V160C200 186.667 186.667 200 160 200H40C13.3333 200 0 186.667 0 160V40C0 13.3333 13.3333 0 40 0ZM47 81C39.6667 81 36 84.6667 36 92V103C36 110.333 39.6667 114 47 114H153C160.333 114 164 110.333 164 103V92C164 84.6667 160.333 81 153 81H47ZM47 130C39.6667 130 36 133.667 36 141V152C36 159.333 39.6667 163 47 163H153C160.333 163 164 159.333 164 152V141C164 133.667 160.333 130 153 130H47Z" fill="#FAFAF7"/>
<path d="M47 81C39.6667 81 36 84.6667 36 92V103C36 110.333 39.6667 114 47 114H153C160.333 114 164 110.333 164 103V92C164 84.6667 160.333 81 153 81H47Z" fill="#0F0F10"/>
<path d="M47 130C39.6667 130 36 133.667 36 141V152C36 159.333 39.6667 163 47 163H153C160.333 163 164 159.333 164 152V141C164 133.667 160.333 130 153 130H47Z" fill="#0F0F10"/>
</g>
<defs>
<clipPath id="clip0_785_4796">
<rect width="200" height="200" fill="white"/>
</clipPath>
</defs>
</svg>
